<svg  xmlns="http://www.w3.org/2000/svg">
<defs>
   <symbol id="marker">

   <path fill-rule="evenodd" clip-rule="evenodd" d="M0.292893 0.292893C0.683417 -0.0976311 1.31658 -0.0976311 1.70711 0.292893L9 7.58579L16.2929 0.292893C16.6834 -0.0976311 17.3166 -0.0976311 17.7071 0.292893C18.0976 0.683417 18.0976 1.31658 17.7071 1.70711L9.70711 9.70711C9.31658 10.0976 8.68342 10.0976 8.29289 9.70711L0.292893 1.70711C-0.0976311 1.31658 -0.0976311 0.683417 0.292893 0.292893Z" fill="#212429"/>

   </symbol>
       
       <symbol id="alert">
<path d="M10.29 3.86001L1.82 18C1.64537 18.3024 1.55296 18.6453 1.55199 18.9945C1.55101 19.3437 1.64149 19.6871 1.81442 19.9905C1.98736 20.2939 2.23672 20.5468 2.53771 20.7239C2.83869 20.901 3.1808 20.9962 3.53 21H20.47C20.8192 20.9962 21.1613 20.901 21.4623 20.7239C21.7633 20.5468 22.0126 20.2939 22.1856 19.9905C22.3585 19.6871 22.449 19.3437 22.448 18.9945C22.447 18.6453 22.3546 18.3024 22.18 18L13.71 3.86001C13.5317 3.56611 13.2807 3.32313 12.9812 3.15449C12.6817 2.98585 12.3437 2.89726 12 2.89726C11.6563 2.89726 11.3183 2.98585 11.0188 3.15449C10.7193 3.32313 10.4683 3.56611 10.29 3.86001V3.86001Z" stroke="#F03D3E" stroke-width="2" stroke-linecap="round" stroke-linejoin="round"/>
<path d="M12 9V13" stroke="#F03D3E" stroke-width="2" stroke-linecap="round" stroke-linejoin="round"/>
<path d="M12 16V16.5" stroke="#F03D3E" stroke-width="2" stroke-linecap="round" stroke-linejoin="round"/>
       </symbol>

   

     <symbol id="burger">
            <path d="M3 12H21" stroke="#495057" stroke-width="2" stroke-linecap="round" stroke-linejoin="round"/>
            <path d="M3 6H21" stroke="#495057" stroke-width="2" stroke-linecap="round" stroke-linejoin="round"/>
            <path d="M3 18H21" stroke="#495057" stroke-width="2" stroke-linecap="round" stroke-linejoin="round"/>
      </symbol>
      <symbol id="close-menu">
          <path d="M18 6L6 18" stroke="#212429" stroke-width="2" stroke-linecap="round" stroke-linejoin="round"/>
          <path d="M6 6L18 18" stroke="#212429" stroke-width="2" stroke-linecap="round" stroke-linejoin="round"/>
      </symbol> 

     <symbol id="tick">
       <path d="M1.5 7.5L5 11L13 2" stroke="white" stroke-width="3" stroke-linecap="round" stroke-linejoin="round"/>
      </symbol>                      
</defs>                    
 </svg>

